<svg width="24" height="24" viewBox="0 0 24 24" fill="none" xmlns="http://www.w3.org/2000/svg">
<path d="M3 5V19C3 20.105 3.895 21 5 21H19C20.105 21 21 20.105 21 19V5C21 3.895 20.105 3 19 3H5C3.895 3 3 3.895 3 5ZM8.268 6H10.744L10.762 10.345L11.116 10.028C11.611 9.592 12.027 9.439 12.815 9.41C13.334 9.395 13.545 9.416 13.908 9.545C14.705 9.812 15.268 10.36 15.561 11.168C15.675 11.485 15.69 11.815 15.711 14.382L15.735 17.25H13.23V14.909C13.23 12.603 13.224 12.574 13.069 12.293C12.849 11.921 12.612 11.751 12.237 11.71C11.599 11.64 11.156 11.856 10.904 12.378C10.784 12.618 10.769 12.87 10.763 14.895C10.754 16.131 10.739 17.224 10.739 17.251H8.272" fill="white"/>
</svg>
